<?xml version="1.0" encoding="UTF-8" standalone="no"?><!DOCTYPE svg PUBLIC "-//W3C//DTD SVG 1.1//EN" "http://www.w3.org/Graphics/SVG/1.1/DTD/svg11.dtd"><svg width="100%" height="100%" viewBox="0 0 120 120" version="1.1" xmlns="http://www.w3.org/2000/svg" xmlns:xlink="http://www.w3.org/1999/xlink" xml:space="preserve" xmlns:serif="http://www.serif.com/" style="fill-rule:evenodd;clip-rule:evenodd;stroke-linejoin:round;stroke-miterlimit:1.41421;"><path d="M59.6,118.528c0.231,0.495 0.501,1.472 0.4,1.472c-33.115,0 -60,-26.885 -60,-60c0,-33.115 26.885,-60 60,-60c33.115,0 60,26.885 60,60c0,8.392 -1.727,16.384 -4.844,23.64c-1.172,-1.334 -4.244,-5.18 -6.84,-7.597c-3.027,-2.82 -6.22,-5.21 -9.437,-7.137c-4.691,-5.51 -8.378,-11.262 -10.688,-18.463c-1.945,-6.83 -8.119,-11.044 -16.468,-11.292c-9.594,-0.284 -17.444,2.363 -20.917,8.979c-22.008,2.739 -30.142,12.277 -30.142,12.277c0,0 9.024,0.916 29.217,-1.212c3.278,1.815 6.124,4.652 7.307,8.276c0.46,1.408 0.648,2.868 0.612,4.327c-7.723,7.855 -7.255,27.332 1.8,46.73Z"/></svg>